<svg xmlns="http://www.w3.org/2000/svg" width="255.79" height="63.075" viewBox="0 0 255.79 63.075"><defs><style>.a,.b{font-size:29px;font-family:Nunito-Bold, Nunito;font-weight:700;letter-spacing:0.025em;}.a,.b,.c{opacity:0.5;}.b,.d{fill:#fff;}</style></defs><g transform="translate(-44.987 -6.925)"><text class="a" transform="translate(116.777 46.419)"><tspan x="0" y="0">PiemontePay</tspan></text><text class="b" transform="translate(63.526 46.419)"><tspan x="0" y="0">tu</tspan></text><g class="c" transform="translate(44.987 6.925)"><g transform="translate(0 0)"><path class="d" d="M4167.887,1636.155c0-3.026-.082-6.219-3.108-6.219s-2.79,3.194-2.752,6.219c.163,12.964-10.078,25.689-26.49,25.689-10.985,0-24.314-9.432-24.863-24.876-.451-12.728,9.71-26.538,25.676-26.477,3.025.012,5.466-.037,5.466-3.062s-2.44-2.811-5.466-2.811a31.536,31.536,0,1,0,31.536,31.536Z" transform="translate(-4104.814 -1604.615)"/></g><circle class="d" cx="5.478" cy="5.478" r="5.478" transform="translate(51.897 11.421)"/><circle class="d" cx="3.908" cy="3.908" r="3.908" transform="translate(39.703 14.758) rotate(-22.196)"/><path class="d" d="M4176.894,1615.821a2.337,2.337,0,1,0,2.337-2.337A2.337,2.337,0,0,0,4176.894,1615.821Z" transform="translate(-4134.434 -1608.26)"/></g></g></svg>