<?xml version="1.0" encoding="utf-8"?>
<!-- Generator: Adobe Illustrator 24.0.3, SVG Export Plug-In . SVG Version: 6.00 Build 0)  -->
<svg version="1.1" id="Livello_1" xmlns="http://www.w3.org/2000/svg" xmlns:xlink="http://www.w3.org/1999/xlink" x="0px" y="0px"
	 viewBox="0 0 266.4 91.3" style="enable-background:new 0 0 266.4 91.3;" xml:space="preserve">
<style type="text/css">
	.st0{enable-background:new    ;}
	.st1{fill:#FFFFFF;}
</style>
<g id="Group_6955" transform="translate(-248 -387.422)">
	<g class="st0">
		<path class="st1" d="M258,399c0,1.3-0.3,2.3-0.8,3.2s-1.2,1.4-2.2,1.7l2.4,2.5h-1.7l-1.9-2.3l-0.4,0c-1.5,0-2.6-0.5-3.4-1.3
			c-0.8-0.9-1.2-2.2-1.2-3.8c0-1.6,0.4-2.9,1.2-3.8c0.8-0.9,1.9-1.3,3.4-1.3c1.4,0,2.6,0.5,3.4,1.4S258,397.4,258,399z M250.1,399
			c0,1.4,0.3,2.4,0.9,3.1c0.6,0.7,1.4,1,2.5,1c1.1,0,1.9-0.3,2.5-1s0.8-1.7,0.8-3.1c0-1.3-0.3-2.4-0.8-3.1c-0.6-0.7-1.4-1-2.5-1
			c-1.1,0-1.9,0.3-2.5,1C250.4,396.6,250.1,397.7,250.1,399z"/>
		<path class="st1" d="M261.2,396.5v4.9c0,0.6,0.1,1.1,0.4,1.4s0.7,0.5,1.3,0.5c0.8,0,1.4-0.2,1.7-0.6s0.5-1.1,0.5-2.1v-3.9h1.1v7.5
			h-0.9l-0.2-1h-0.1c-0.2,0.4-0.6,0.7-1,0.8s-0.9,0.3-1.4,0.3c-0.9,0-1.6-0.2-2-0.6s-0.7-1.1-0.7-2.1v-4.9H261.2z"/>
		<path class="st1" d="M271.9,404.1c-1.1,0-2-0.3-2.6-1s-1-1.6-1-2.8c0-1.2,0.3-2.2,0.9-2.9s1.4-1.1,2.4-1.1c0.9,0,1.7,0.3,2.2,0.9
			c0.5,0.6,0.8,1.4,0.8,2.4v0.7h-5.2c0,0.9,0.2,1.5,0.7,2s1,0.7,1.8,0.7c0.8,0,1.6-0.2,2.4-0.5v1c-0.4,0.2-0.8,0.3-1.1,0.4
			C272.8,404.1,272.4,404.1,271.9,404.1z M271.6,397.3c-0.6,0-1.1,0.2-1.4,0.6s-0.6,0.9-0.6,1.6h3.9c0-0.7-0.2-1.3-0.5-1.6
			C272.6,397.5,272.1,397.3,271.6,397.3z"/>
		<path class="st1" d="M281.4,402c0,0.7-0.3,1.2-0.8,1.6s-1.2,0.6-2.2,0.6c-1,0-1.8-0.2-2.3-0.5v-1.1c0.4,0.2,0.7,0.3,1.2,0.4
			s0.8,0.2,1.2,0.2c0.6,0,1-0.1,1.4-0.3c0.3-0.2,0.5-0.5,0.5-0.9c0-0.3-0.1-0.5-0.4-0.7c-0.3-0.2-0.7-0.5-1.5-0.7
			c-0.7-0.3-1.2-0.5-1.5-0.7c-0.3-0.2-0.5-0.4-0.7-0.7s-0.2-0.5-0.2-0.9c0-0.6,0.2-1.1,0.7-1.4c0.5-0.4,1.2-0.5,2-0.5
			c0.8,0,1.6,0.2,2.4,0.5l-0.4,0.9c-0.8-0.3-1.4-0.5-2-0.5c-0.5,0-0.9,0.1-1.2,0.3s-0.4,0.4-0.4,0.7c0,0.2,0.1,0.4,0.2,0.5
			s0.3,0.3,0.5,0.4s0.7,0.3,1.3,0.6c0.9,0.3,1.5,0.6,1.8,1S281.4,401.5,281.4,402z"/>
		<path class="st1" d="M285.7,403.2c0.2,0,0.4,0,0.6,0c0.2,0,0.3-0.1,0.4-0.1v0.9c-0.1,0.1-0.3,0.1-0.5,0.1c-0.2,0-0.5,0.1-0.6,0.1
			c-1.4,0-2.2-0.8-2.2-2.3v-4.5h-1.1v-0.5l1.1-0.5l0.5-1.6h0.7v1.7h2.2v0.9h-2.2v4.4c0,0.5,0.1,0.8,0.3,1S285.3,403.2,285.7,403.2z"
			/>
		<path class="st1" d="M294.6,400.2c0,1.2-0.3,2.2-0.9,2.9c-0.6,0.7-1.5,1-2.5,1c-0.7,0-1.3-0.2-1.8-0.5s-0.9-0.8-1.2-1.4
			s-0.4-1.3-0.4-2.1c0-1.2,0.3-2.2,0.9-2.9c0.6-0.7,1.5-1,2.5-1c1,0,1.9,0.3,2.5,1S294.6,399.1,294.6,400.2z M288.9,400.2
			c0,1,0.2,1.7,0.6,2.2s0.9,0.8,1.7,0.8s1.3-0.2,1.7-0.7c0.4-0.5,0.6-1.2,0.6-2.2c0-1-0.2-1.7-0.6-2.2c-0.4-0.5-1-0.7-1.7-0.7
			c-0.7,0-1.3,0.2-1.7,0.7S288.9,399.3,288.9,400.2z"/>
		<path class="st1" d="M305.1,402c0,0.7-0.3,1.2-0.8,1.6s-1.2,0.6-2.2,0.6c-1,0-1.8-0.2-2.3-0.5v-1.1c0.4,0.2,0.7,0.3,1.2,0.4
			s0.8,0.2,1.2,0.2c0.6,0,1-0.1,1.4-0.3c0.3-0.2,0.5-0.5,0.5-0.9c0-0.3-0.1-0.5-0.4-0.7c-0.3-0.2-0.7-0.5-1.5-0.7
			c-0.7-0.3-1.2-0.5-1.5-0.7c-0.3-0.2-0.5-0.4-0.7-0.7s-0.2-0.5-0.2-0.9c0-0.6,0.2-1.1,0.7-1.4c0.5-0.4,1.2-0.5,2-0.5
			c0.8,0,1.6,0.2,2.4,0.5l-0.4,0.9c-0.8-0.3-1.4-0.5-2-0.5c-0.5,0-0.9,0.1-1.2,0.3s-0.4,0.4-0.4,0.7c0,0.2,0.1,0.4,0.2,0.5
			s0.3,0.3,0.5,0.4s0.7,0.3,1.3,0.6c0.9,0.3,1.5,0.6,1.8,1S305.1,401.5,305.1,402z"/>
		<path class="st1" d="M310.1,404.1c-1.1,0-2-0.3-2.6-1s-1-1.6-1-2.8c0-1.2,0.3-2.2,0.9-2.9s1.4-1.1,2.4-1.1c0.9,0,1.7,0.3,2.2,0.9
			c0.5,0.6,0.8,1.4,0.8,2.4v0.7h-5.2c0,0.9,0.2,1.5,0.7,2s1,0.7,1.8,0.7c0.8,0,1.6-0.2,2.4-0.5v1c-0.4,0.2-0.8,0.3-1.1,0.4
			C311,404.1,310.6,404.1,310.1,404.1z M309.8,397.3c-0.6,0-1.1,0.2-1.4,0.6s-0.6,0.9-0.6,1.6h3.9c0-0.7-0.2-1.3-0.5-1.6
			C310.9,397.5,310.4,397.3,309.8,397.3z"/>
		<path class="st1" d="M318.2,396.4c0.3,0,0.6,0,0.9,0.1l-0.2,1.1c-0.3-0.1-0.6-0.1-0.8-0.1c-0.6,0-1.1,0.2-1.6,0.7
			s-0.6,1.1-0.6,1.8v4h-1.1v-7.5h0.9l0.1,1.4h0.1c0.3-0.5,0.6-0.9,1-1.1S317.7,396.4,318.2,396.4z"/>
		<path class="st1" d="M322.2,404l-2.8-7.5h1.2l1.6,4.4c0.4,1,0.6,1.7,0.6,2h0.1c0.1-0.2,0.2-0.7,0.5-1.5c0.3-0.8,0.9-2.4,1.8-5h1.2
			l-2.8,7.5H322.2z"/>
		<path class="st1" d="M327.4,394.5c0-0.3,0.1-0.5,0.2-0.6c0.1-0.1,0.3-0.2,0.5-0.2c0.2,0,0.3,0.1,0.5,0.2s0.2,0.3,0.2,0.6
			s-0.1,0.4-0.2,0.6c-0.1,0.1-0.3,0.2-0.5,0.2c-0.2,0-0.4-0.1-0.5-0.2C327.5,394.9,327.4,394.7,327.4,394.5z M328.7,404h-1.1v-7.5
			h1.1V404z"/>
		<path class="st1" d="M335.9,404h-5.4v-0.8l4.1-5.8h-3.8v-0.9h5.1v0.9l-4,5.7h4.1V404z"/>
		<path class="st1" d="M337.5,394.5c0-0.3,0.1-0.5,0.2-0.6c0.1-0.1,0.3-0.2,0.5-0.2c0.2,0,0.3,0.1,0.5,0.2s0.2,0.3,0.2,0.6
			s-0.1,0.4-0.2,0.6c-0.1,0.1-0.3,0.2-0.5,0.2c-0.2,0-0.4-0.1-0.5-0.2C337.6,394.9,337.5,394.7,337.5,394.5z M338.8,404h-1.1v-7.5
			h1.1V404z"/>
		<path class="st1" d="M347.6,400.2c0,1.2-0.3,2.2-0.9,2.9c-0.6,0.7-1.5,1-2.5,1c-0.7,0-1.3-0.2-1.8-0.5s-0.9-0.8-1.2-1.4
			s-0.4-1.3-0.4-2.1c0-1.2,0.3-2.2,0.9-2.9c0.6-0.7,1.5-1,2.5-1c1,0,1.9,0.3,2.5,1S347.6,399.1,347.6,400.2z M341.9,400.2
			c0,1,0.2,1.7,0.6,2.2s0.9,0.8,1.7,0.8s1.3-0.2,1.7-0.7c0.4-0.5,0.6-1.2,0.6-2.2c0-1-0.2-1.7-0.6-2.2c-0.4-0.5-1-0.7-1.7-0.7
			c-0.7,0-1.3,0.2-1.7,0.7S341.9,399.3,341.9,400.2z"/>
		<path class="st1" d="M356.4,404.1c-1.1,0-2-0.3-2.6-1s-1-1.6-1-2.8c0-1.2,0.3-2.2,0.9-2.9s1.4-1.1,2.4-1.1c0.9,0,1.7,0.3,2.2,0.9
			c0.5,0.6,0.8,1.4,0.8,2.4v0.7H354c0,0.9,0.2,1.5,0.7,2s1,0.7,1.8,0.7c0.8,0,1.6-0.2,2.4-0.5v1c-0.4,0.2-0.8,0.3-1.1,0.4
			C357.4,404.1,356.9,404.1,356.4,404.1z M356.1,397.3c-0.6,0-1.1,0.2-1.4,0.6s-0.6,0.9-0.6,1.6h3.9c0-0.7-0.2-1.3-0.5-1.6
			C357.2,397.5,356.7,397.3,356.1,397.3z M356.9,395.5h-0.8c-0.3-0.2-0.6-0.6-1.1-1s-0.7-0.8-0.9-1.1v-0.1h1.4
			c0.1,0.3,0.3,0.7,0.6,1.1c0.3,0.4,0.5,0.7,0.7,1V395.5z"/>
		<path class="st1" d="M368.2,404.1c-0.5,0-0.9-0.1-1.3-0.3c-0.4-0.2-0.7-0.5-1-0.8h-0.1c0.1,0.4,0.1,0.9,0.1,1.2v3.1h-1.1v-10.9
			h0.9l0.2,1h0.1c0.3-0.4,0.6-0.7,1-0.9s0.8-0.3,1.3-0.3c1,0,1.8,0.3,2.3,1s0.8,1.6,0.8,2.9c0,1.2-0.3,2.2-0.8,2.9
			C370,403.8,369.2,404.1,368.2,404.1z M368.1,397.3c-0.8,0-1.3,0.2-1.7,0.6s-0.5,1.1-0.5,2v0.3c0,1.1,0.2,1.8,0.5,2.3
			c0.4,0.5,0.9,0.7,1.7,0.7c0.6,0,1.2-0.3,1.5-0.8s0.6-1.2,0.6-2.2c0-0.9-0.2-1.7-0.6-2.1C369.2,397.6,368.7,397.3,368.1,397.3z"/>
		<path class="st1" d="M377.9,404l-0.2-1.1h-0.1c-0.4,0.5-0.7,0.8-1.1,1c-0.4,0.2-0.8,0.2-1.4,0.2c-0.7,0-1.3-0.2-1.7-0.6
			s-0.6-0.9-0.6-1.6c0-1.5,1.2-2.3,3.6-2.4l1.3,0V399c0-0.6-0.1-1-0.4-1.3c-0.3-0.3-0.7-0.4-1.2-0.4c-0.6,0-1.3,0.2-2.1,0.6
			l-0.3-0.9c0.4-0.2,0.8-0.4,1.2-0.5s0.9-0.2,1.3-0.2c0.9,0,1.6,0.2,2,0.6s0.6,1,0.6,1.9v5.1H377.9z M375.4,403.2
			c0.7,0,1.3-0.2,1.7-0.6s0.6-0.9,0.6-1.6v-0.7l-1.1,0c-0.9,0-1.6,0.2-2,0.4c-0.4,0.2-0.6,0.6-0.6,1.2c0,0.4,0.1,0.7,0.4,0.9
			S374.9,403.2,375.4,403.2z"/>
		<path class="st1" d="M384.5,396.4c0.3,0,0.6,0,0.9,0.1l-0.2,1.1c-0.3-0.1-0.6-0.1-0.8-0.1c-0.6,0-1.1,0.2-1.6,0.7
			c-0.4,0.5-0.6,1.1-0.6,1.8v4h-1.1v-7.5h0.9l0.1,1.4h0.1c0.3-0.5,0.6-0.9,1-1.1S384.1,396.4,384.5,396.4z"/>
		<path class="st1" d="M389.2,403.2c0.2,0,0.4,0,0.6,0c0.2,0,0.3-0.1,0.4-0.1v0.9c-0.1,0.1-0.3,0.1-0.5,0.1c-0.2,0-0.5,0.1-0.6,0.1
			c-1.4,0-2.2-0.8-2.2-2.3v-4.5h-1.1v-0.5l1.1-0.5l0.5-1.6h0.7v1.7h2.2v0.9H388v4.4c0,0.5,0.1,0.8,0.3,1S388.9,403.2,389.2,403.2z"
			/>
		<path class="st1" d="M394.9,404.1c-1.1,0-2-0.3-2.6-1c-0.6-0.7-1-1.6-1-2.8c0-1.2,0.3-2.2,0.9-2.9c0.6-0.7,1.4-1.1,2.4-1.1
			c0.9,0,1.7,0.3,2.2,0.9c0.5,0.6,0.8,1.4,0.8,2.4v0.7h-5.2c0,0.9,0.2,1.5,0.7,2c0.4,0.5,1,0.7,1.8,0.7c0.8,0,1.6-0.2,2.4-0.5v1
			c-0.4,0.2-0.8,0.3-1.1,0.4C395.9,404.1,395.4,404.1,394.9,404.1z M394.6,397.3c-0.6,0-1.1,0.2-1.4,0.6c-0.4,0.4-0.6,0.9-0.6,1.6
			h3.9c0-0.7-0.2-1.3-0.5-1.6C395.7,397.5,395.2,397.3,394.6,397.3z"/>
		<path class="st1" d="M408.4,403L408.4,403c-0.6,0.8-1.4,1.1-2.4,1.1c-1,0-1.7-0.3-2.3-1c-0.5-0.7-0.8-1.6-0.8-2.9s0.3-2.2,0.8-2.9
			s1.3-1,2.3-1c1,0,1.8,0.4,2.3,1.1h0.1l0-0.5l0-0.5v-3h1.1V404h-0.9L408.4,403z M406.1,403.2c0.8,0,1.3-0.2,1.7-0.6
			c0.3-0.4,0.5-1.1,0.5-2v-0.2c0-1.1-0.2-1.8-0.5-2.3c-0.4-0.5-0.9-0.7-1.7-0.7c-0.7,0-1.2,0.3-1.5,0.8c-0.4,0.5-0.5,1.2-0.5,2.2
			c0,1,0.2,1.7,0.5,2.2S405.4,403.2,406.1,403.2z"/>
		<path class="st1" d="M411.7,394.5c0-0.3,0.1-0.5,0.2-0.6c0.1-0.1,0.3-0.2,0.5-0.2c0.2,0,0.3,0.1,0.5,0.2s0.2,0.3,0.2,0.6
			s-0.1,0.4-0.2,0.6c-0.1,0.1-0.3,0.2-0.5,0.2c-0.2,0-0.4-0.1-0.5-0.2C411.8,394.9,411.7,394.7,411.7,394.5z M413,404h-1.1v-7.5h1.1
			V404z"/>
	</g>
	<g id="Group_6441" transform="translate(-133.17 -2085.063)">
		<g id="Group_74" transform="translate(582.812 2505.505)">
			<path id="Path_210" class="st1" d="M15.1,24c0,0.6-0.3,1.2-0.8,1.5c-0.7,0.4-1.5,0.5-2.2,0.4L11,25.8c-4.5-0.3-6.7-2.7-6.7-7.2
				V9.8h-2c-0.6,0-1.2-0.1-1.7-0.5c-0.8-0.8-0.8-2,0-2.8c0,0,0,0,0,0C1.1,6.2,1.7,6,2.2,6.1h2V2.4c0-0.6,0.2-1.3,0.7-1.7
				C5.4,0.2,6.1,0,6.8,0c0.7,0,1.3,0.2,1.8,0.6C9,1.1,9.3,1.7,9.3,2.4v3.7h3.4c0.6,0,1.2,0.1,1.7,0.5c0.8,0.8,0.8,2,0,2.8
				c-0.5,0.4-1.1,0.5-1.7,0.5H9.3v9.1c0,2,0.9,3,2.7,3.2l1.1,0.1C14.4,22.3,15.1,22.9,15.1,24z"/>
			<path id="Path_211" class="st1" d="M35.5,6.3C36,6.7,36.2,7.4,36.2,8v15.6c0,0.6-0.2,1.3-0.7,1.7c-0.5,0.4-1.2,0.7-1.8,0.6
				c-0.6,0-1.3-0.2-1.7-0.6c-0.4-0.4-0.7-1-0.6-1.6v-1c-0.6,1-1.4,1.9-2.5,2.5c-1.1,0.6-2.3,0.9-3.5,0.9c-4.8,0-7.2-2.7-7.2-8.1V8
				c0-0.6,0.2-1.3,0.7-1.7c0.5-0.4,1.1-0.7,1.8-0.6c0.7,0,1.3,0.2,1.8,0.6c0.5,0.5,0.7,1.1,0.7,1.7v9.9C23,19,23.3,20.1,23.9,21
				c0.7,0.7,1.7,1.1,2.6,1c1.3,0.1,2.5-0.5,3.3-1.4c0.9-1,1.3-2.3,1.3-3.7V8c0-0.6,0.2-1.3,0.7-1.7c0.5-0.4,1.1-0.7,1.8-0.6
				C34.4,5.6,35,5.9,35.5,6.3z"/>
		</g>
		<g id="Group_76" transform="translate(381.812 2503.487)">
			<g id="Group_75">
				<path id="Path_212" class="st1" d="M0.7,27C0.2,26.5,0,25.9,0,25.2V2.9c0-0.6,0.2-1.3,0.6-1.7c0.5-0.4,1.1-0.6,1.7-0.6h9.4
					c2.4-0.1,4.8,0.6,6.7,2.1c3.2,3.4,3.2,8.7,0,12.1c-1.9,1.5-4.3,2.3-6.7,2.2H4.9v8.2c0.1,1.3-0.8,2.4-2.1,2.5c-0.1,0-0.2,0-0.4,0
					C1.8,27.7,1.1,27.5,0.7,27z M11.1,13.2c3.4,0,5.1-1.5,5.1-4.4c0-2.9-1.7-4.4-5.1-4.4H4.9v8.8H11.1z"/>
				<path id="Path_213" class="st1" d="M25,4.4c-0.5-0.5-0.8-1.1-0.8-1.8c0-0.7,0.2-1.4,0.8-1.8c1.2-0.9,2.9-0.9,4.1,0
					c0.5,0.5,0.8,1.1,0.8,1.8c0,0.7-0.3,1.4-0.8,1.8C27.9,5.3,26.2,5.3,25,4.4L25,4.4z M25.4,27.1c-0.5-0.4-0.7-1.1-0.7-1.7V10.7
					c0-0.6,0.2-1.2,0.7-1.7c0.5-0.4,1.1-0.6,1.7-0.6c0.6,0,1.2,0.2,1.7,0.6c0.5,0.4,0.7,1,0.7,1.7v14.7c0,0.6-0.2,1.3-0.7,1.7
					c-0.5,0.4-1.1,0.6-1.7,0.6C26.5,27.7,25.8,27.5,25.4,27.1L25.4,27.1z"/>
				<path id="Path_214" class="st1" d="M50.3,22.8c0.3,0.4,0.4,0.9,0.4,1.3c-0.1,0.9-0.6,1.6-1.4,2c-0.9,0.5-1.9,0.9-2.9,1.2
					c-1,0.3-2.1,0.4-3.1,0.4c-2.6,0.1-5.2-0.8-7.1-2.6c-1.8-1.9-2.8-4.5-2.6-7.1c0-1.8,0.4-3.5,1.1-5.1c0.7-1.4,1.8-2.6,3.2-3.4
					c1.4-0.8,3.1-1.2,4.7-1.2c1.5,0,3,0.3,4.4,1.1c1.2,0.7,2.3,1.8,2.9,3.1c0.7,1.5,1.1,3.1,1,4.8c0,1.1-0.5,1.6-1.4,1.6H38.2
					c0,1.4,0.5,2.8,1.5,3.9c1,0.9,2.3,1.3,3.7,1.2c0.7,0,1.5-0.1,2.2-0.3c0.7-0.2,1.4-0.5,2.1-0.8c0.5-0.3,1.1-0.5,1.7-0.6
					C49.7,22.3,50,22.5,50.3,22.8z M39.6,12.9c-0.8,1-1.3,2.2-1.4,3.5h8.6c0-1.3-0.4-2.5-1.1-3.5c-0.8-0.8-1.9-1.3-3-1.2
					C41.5,11.7,40.4,12.1,39.6,12.9L39.6,12.9z"/>
				<path id="Path_215" class="st1" d="M81.8,10.2c1.1,1.2,1.6,3.2,1.6,5.8v9.4c0,0.6-0.2,1.3-0.7,1.7c-0.5,0.4-1.1,0.6-1.7,0.6
					c-0.6,0-1.2-0.2-1.7-0.6c-0.5-0.4-0.7-1.1-0.7-1.7V16c0.1-1.1-0.2-2.1-0.7-3c-0.6-0.6-1.4-1-2.3-0.9c-1.1,0-2.2,0.4-3,1.3
					c-0.8,1-1.2,2.2-1.1,3.5v8.5c0,0.6-0.2,1.3-0.7,1.7c-0.5,0.4-1.1,0.6-1.7,0.6c-0.6,0-1.2-0.2-1.7-0.6c-0.5-0.4-0.7-1.1-0.7-1.7
					V16c0.1-1.1-0.2-2.1-0.7-3c-0.6-0.6-1.4-1-2.3-0.9c-1.1-0.1-2.2,0.4-3,1.3c-0.8,1-1.2,2.2-1.1,3.5v8.5c0,0.6-0.2,1.3-0.7,1.7
					c-0.5,0.4-1.1,0.6-1.7,0.6c-0.6,0-1.2-0.2-1.7-0.6C55.2,26.6,55,26,55,25.4V10.7c0-0.6,0.2-1.2,0.7-1.6c0.5-0.4,1.1-0.6,1.7-0.6
					C58,8.4,58.6,8.6,59,9c0.4,0.4,0.7,1,0.6,1.6v0.9c0.5-1,1.4-1.8,2.3-2.3c1-0.5,2.2-0.8,3.4-0.8c2.8,0,4.7,1.2,5.6,3.5
					c0.6-1.1,1.4-2,2.5-2.6c1.1-0.6,2.4-1,3.7-1C78.9,8.3,80.6,8.9,81.8,10.2z"/>
				<path id="Path_216" class="st1" d="M91.9,26.6c-1.4-0.8-2.6-2-3.3-3.4c-1.6-3.2-1.6-7,0-10.3c0.8-1.4,1.9-2.6,3.3-3.4
					c3.2-1.6,6.9-1.6,10,0c1.4,0.8,2.6,1.9,3.3,3.4c1.5,3.2,1.5,7,0,10.3c-0.7,1.4-1.9,2.6-3.3,3.4C98.8,28.1,95.1,28.1,91.9,26.6z
					 M100.5,22.5c1.6-2.8,1.6-6.2,0-9c-0.9-1-2.2-1.6-3.5-1.5c-1.4-0.1-2.7,0.5-3.5,1.5c-1.6,2.8-1.6,6.2,0,9c0.9,1,2.2,1.6,3.5,1.5
					C98.3,24.1,99.6,23.6,100.5,22.5L100.5,22.5z"/>
				<path id="Path_217" class="st1" d="M126.3,10.3c1.1,1.3,1.6,3.2,1.6,5.7v9.4c0,0.6-0.2,1.2-0.6,1.7c-0.5,0.4-1.1,0.6-1.7,0.6
					c-0.6,0-1.3-0.2-1.8-0.6c-0.4-0.4-0.7-1-0.6-1.7v-9.1c0.1-1.1-0.2-2.2-0.8-3.2c-0.7-0.7-1.6-1.1-2.6-1c-1.2-0.1-2.4,0.4-3.3,1.3
					c-0.9,0.9-1.3,2.2-1.2,3.5v8.5c0,0.6-0.2,1.2-0.6,1.7c-0.5,0.4-1.1,0.6-1.8,0.6c-0.6,0-1.3-0.2-1.7-0.6
					c-0.4-0.4-0.7-1.1-0.6-1.7V10.7c0-0.6,0.2-1.2,0.6-1.6c0.5-0.4,1.1-0.6,1.8-0.6c0.6,0,1.2,0.2,1.6,0.6c0.4,0.4,0.7,1,0.6,1.5v1
					c0.6-1,1.5-1.9,2.6-2.4c1.1-0.6,2.4-0.9,3.6-0.8C123.2,8.2,125,8.9,126.3,10.3z"/>
				<path id="Path_218" class="st1" d="M144.7,25.8c0,0.6-0.3,1.1-0.7,1.4c-0.6,0.3-1.4,0.5-2.1,0.4l-1-0.1
					c-4.3-0.3-6.4-2.6-6.4-6.9v-8.3h-1.9c-0.6,0-1.1-0.1-1.6-0.5c-0.7-0.7-0.7-1.9,0-2.7c0.5-0.3,1-0.5,1.6-0.5h1.9V5.3
					c0-0.6,0.2-1.2,0.6-1.6c0.5-0.4,1.1-0.6,1.8-0.6c0.6,0,1.2,0.2,1.7,0.6c0.4,0.4,0.7,1,0.6,1.6v3.5h3.2c0.6,0,1.1,0.1,1.6,0.5
					c0.7,0.7,0.7,1.9,0,2.7c0,0,0,0,0,0c-0.5,0.3-1,0.5-1.6,0.5h-3.2v8.6c0,1.9,0.9,2.9,2.6,3l1,0.1
					C144.1,24.2,144.7,24.8,144.7,25.8z"/>
				<path id="Path_219" class="st1" d="M163,22.8c0.3,0.4,0.4,0.9,0.4,1.3c-0.1,0.9-0.6,1.6-1.4,2c-0.9,0.5-1.9,0.9-2.9,1.2
					c-1,0.3-2.1,0.4-3.1,0.4c-2.6,0.1-5.2-0.8-7.1-2.6c-1.8-1.9-2.8-4.5-2.6-7.1c0-1.8,0.4-3.5,1.1-5.1c0.7-1.4,1.8-2.6,3.2-3.4
					c1.4-0.8,3.1-1.2,4.7-1.2c1.5,0,3,0.3,4.4,1.1c1.2,0.7,2.3,1.8,2.9,3.1c0.7,1.5,1.1,3.1,1,4.8c0,1.1-0.5,1.6-1.4,1.6h-11.2
					c0,1.4,0.5,2.8,1.5,3.9c1,0.9,2.3,1.3,3.7,1.2c0.7,0,1.5-0.1,2.2-0.3c0.7-0.2,1.4-0.5,2.1-0.8c0.5-0.3,1.1-0.5,1.7-0.6
					C162.4,22.3,162.7,22.5,163,22.8z M152.3,12.9c-0.8,1-1.3,2.2-1.4,3.5h8.6c0-1.3-0.4-2.5-1.1-3.5c-0.8-0.8-1.9-1.3-3-1.2
					C154.2,11.7,153.1,12.1,152.3,12.9L152.3,12.9z"/>
			</g>
		</g>
		<g id="Group_80" transform="translate(556.253 2472.485)">
			<g id="Group_79">
				<g id="Group_78">
					<g id="Group_77">
						<path id="Path_220" class="st1" d="M91.3,45.7c0-4.4-0.1-9-4.5-9s-4,4.6-4,9c0.2,18.8-14.6,37.2-38.4,37.2
							c-15.9,0-35.2-13.7-36-36C7.8,28.4,22.5,8.4,45.7,8.5c4.4,0,7.9-0.1,7.9-4.4S50,0,45.7,0C20.4,0,0,20.4,0,45.7
							c0,25.2,20.4,45.7,45.7,45.7C70.9,91.3,91.3,70.9,91.3,45.7L91.3,45.7L91.3,45.7z"/>
					</g>
				</g>
			</g>
			<circle id="Ellipse_70" class="st1" cx="83.1" cy="24.5" r="7.9"/>
			<circle id="Ellipse_71" class="st1" cx="64.9" cy="24.5" r="5.7"/>
			<path id="Path_221" class="st1" d="M61.5,10.9c0,1.9,1.5,3.4,3.4,3.4s3.4-1.5,3.4-3.4s-1.5-3.4-3.4-3.4S61.5,9.1,61.5,10.9
				L61.5,10.9z"/>
		</g>
	</g>
</g>
</svg>
