<svg xmlns="http://www.w3.org/2000/svg" width="439.869" height="107.075" viewBox="0 0 439.869 107.075"><defs><style>.a,.b{fill:#fff;}.a{font-size:50px;font-family:Nunito-Bold, Nunito;font-weight:700;letter-spacing:0.025em;}</style></defs><g transform="translate(-4104.814 -1604.615)"><text class="a" transform="translate(4136.286 1673.43)"><tspan x="0" y="0">tu</tspan></text><text class="a" transform="translate(4226.683 1673.43)"><tspan x="0" y="0">PiemontePay</tspan></text><path class="b" d="M4211.885,1658.156c0-5.136-.139-10.558-5.276-10.558s-4.736,5.422-4.672,10.558c.277,22.007-17.108,43.61-44.968,43.61-18.649,0-41.276-16.011-42.207-42.229-.766-21.607,16.484-45.05,43.588-44.946,5.136.02,9.278-.063,9.278-5.2s-4.142-4.771-9.278-4.771a53.535,53.535,0,1,0,53.535,53.535Z"/><circle class="b" cx="9.3" cy="9.3" r="9.3" transform="translate(4192.914 1624.004)"/><circle class="b" cx="6.634" cy="6.634" r="6.634" transform="translate(4172.213 1629.667) rotate(-22.196)"/><path class="b" d="M4176.894,1617.451a3.968,3.968,0,1,0,3.968-3.967A3.967,3.967,0,0,0,4176.894,1617.451Z"/></g></svg>