<?xml version="1.0" encoding="utf-8"?>
<!-- Generator: Adobe Illustrator 24.0.3, SVG Export Plug-In . SVG Version: 6.00 Build 0)  -->
<svg version="1.1" id="Livello_1" xmlns="http://www.w3.org/2000/svg" xmlns:xlink="http://www.w3.org/1999/xlink" x="0px" y="0px"
	 viewBox="0 0 255.8 63.1" style="enable-background:new 0 0 255.8 63.1;" xml:space="preserve">
<style type="text/css">
	.st0{enable-background:new    ;}
	.st1{fill:#FFFFFF;}
	.st2{opacity:0.5;}
</style>
<g id="Group_6956" transform="translate(-44.987 -6.925)">
	<g class="st0">
		<path class="st1" d="M119.5,46.1c-0.3-0.3-0.5-0.8-0.5-1.4v-17c0-0.6,0.2-1,0.5-1.3c0.3-0.3,0.8-0.5,1.3-0.5h7.1
			c2.2,0,3.9,0.5,5.1,1.6c1.2,1.1,1.8,2.6,1.8,4.6s-0.6,3.5-1.8,4.6c-1.2,1.1-2.9,1.7-5.1,1.7h-5.2v6.2c0,0.6-0.2,1-0.5,1.4
			c-0.3,0.3-0.8,0.5-1.4,0.5C120.3,46.6,119.8,46.4,119.5,46.1z M127.4,35.6c2.6,0,3.9-1.1,3.9-3.4c0-2.2-1.3-3.4-3.9-3.4h-4.7v6.7
			H127.4z"/>
		<path class="st1" d="M138.8,28.8c-0.4-0.4-0.6-0.8-0.6-1.4s0.2-1,0.6-1.4c0.4-0.3,0.9-0.5,1.6-0.5c0.6,0,1.2,0.2,1.6,0.5
			c0.4,0.3,0.6,0.8,0.6,1.4s-0.2,1-0.6,1.4c-0.4,0.4-0.9,0.5-1.6,0.5C139.7,29.4,139.1,29.2,138.8,28.8z M139,46.1
			c-0.3-0.3-0.5-0.7-0.5-1.3V33.7c0-0.6,0.2-1,0.5-1.3c0.3-0.3,0.8-0.4,1.3-0.4s1,0.1,1.3,0.4c0.3,0.3,0.5,0.7,0.5,1.3v11.2
			c0,0.6-0.2,1-0.5,1.3c-0.3,0.3-0.8,0.4-1.3,0.4S139.4,46.4,139,46.1z"/>
		<path class="st1" d="M158.6,42.9c0.2,0.3,0.3,0.6,0.3,1c0,0.6-0.4,1.1-1.1,1.5c-0.7,0.4-1.4,0.7-2.2,0.9s-1.6,0.3-2.4,0.3
			c-2.3,0-4.1-0.7-5.4-2c-1.3-1.3-2-3.1-2-5.4c0-1.5,0.3-2.7,0.9-3.9c0.6-1.1,1.4-2,2.5-2.6c1.1-0.6,2.2-0.9,3.6-0.9
			c1.3,0,2.4,0.3,3.3,0.8c0.9,0.6,1.7,1.4,2.2,2.4c0.5,1,0.8,2.2,0.8,3.6c0,0.8-0.4,1.2-1.1,1.2h-8.6c0.1,1.3,0.5,2.3,1.1,2.9
			c0.6,0.6,1.6,0.9,2.8,0.9c0.6,0,1.2-0.1,1.6-0.2c0.5-0.2,1-0.4,1.6-0.6c0.6-0.3,1-0.5,1.3-0.5C158.2,42.5,158.4,42.7,158.6,42.9z
			 M150.5,35.4c-0.6,0.6-0.9,1.5-1.1,2.7h6.6c0-1.2-0.3-2.1-0.9-2.7c-0.5-0.6-1.3-0.9-2.3-0.9C151.8,34.4,151,34.8,150.5,35.4z"/>
		<path class="st1" d="M183.1,33.3c0.8,0.9,1.2,2.4,1.2,4.5v7.1c0,0.6-0.2,1-0.5,1.3c-0.3,0.3-0.8,0.4-1.3,0.4c-0.5,0-1-0.1-1.3-0.4
			c-0.3-0.3-0.5-0.7-0.5-1.3v-7.1c0-1.1-0.2-1.8-0.6-2.3s-1-0.7-1.7-0.7c-0.9,0-1.7,0.3-2.3,1c-0.6,0.6-0.8,1.5-0.8,2.7v6.5
			c0,0.6-0.2,1-0.5,1.3c-0.3,0.3-0.8,0.4-1.3,0.4c-0.5,0-1-0.1-1.3-0.4s-0.5-0.7-0.5-1.3v-7.1c0-1.1-0.2-1.8-0.6-2.3s-1-0.7-1.7-0.7
			c-0.9,0-1.7,0.3-2.2,1c-0.6,0.6-0.8,1.5-0.8,2.7v6.5c0,0.6-0.2,1-0.5,1.3c-0.3,0.3-0.8,0.4-1.3,0.4s-1-0.1-1.3-0.4
			c-0.3-0.3-0.5-0.7-0.5-1.3V33.6c0-0.5,0.2-1,0.5-1.2c0.3-0.3,0.8-0.4,1.3-0.4c0.5,0,0.9,0.1,1.2,0.4c0.3,0.3,0.5,0.7,0.5,1.2v0.7
			c0.4-0.8,1-1.4,1.8-1.8c0.7-0.4,1.6-0.6,2.6-0.6c2.1,0,3.5,0.9,4.3,2.7c0.4-0.8,1.1-1.5,1.9-1.9c0.8-0.5,1.8-0.7,2.8-0.7
			C181.1,31.9,182.3,32.3,183.1,33.3z"/>
		<path class="st1" d="M191.4,45.8c-1.1-0.6-1.9-1.5-2.5-2.6c-0.6-1.1-0.9-2.4-0.9-3.9c0-1.5,0.3-2.8,0.9-3.9c0.6-1.1,1.4-2,2.5-2.6
			c1.1-0.6,2.4-0.9,3.8-0.9s2.7,0.3,3.8,0.9s1.9,1.5,2.5,2.6c0.6,1.1,0.9,2.4,0.9,3.9c0,1.5-0.3,2.8-0.9,3.9c-0.6,1.1-1.4,2-2.5,2.6
			c-1.1,0.6-2.4,0.9-3.8,0.9S192.5,46.4,191.4,45.8z M197.9,42.7c0.6-0.8,0.9-1.9,0.9-3.4c0-1.5-0.3-2.6-0.9-3.4s-1.5-1.2-2.7-1.2
			s-2.1,0.4-2.7,1.2s-0.9,1.9-0.9,3.4c0,1.5,0.3,2.6,0.9,3.4c0.6,0.8,1.5,1.2,2.7,1.2C196.4,43.8,197.3,43.5,197.9,42.7z"/>
		<path class="st1" d="M218.2,33.3c0.8,1,1.2,2.4,1.2,4.4v7.1c0,0.5-0.2,1-0.5,1.3c-0.3,0.3-0.8,0.5-1.3,0.5s-1-0.2-1.3-0.5
			c-0.3-0.3-0.5-0.7-0.5-1.3v-6.9c0-1.1-0.2-1.9-0.6-2.4c-0.4-0.5-1.1-0.8-2-0.8c-1,0-1.9,0.3-2.5,1c-0.6,0.7-0.9,1.5-0.9,2.6v6.5
			c0,0.5-0.2,1-0.5,1.3c-0.3,0.3-0.8,0.5-1.3,0.5c-0.6,0-1-0.2-1.3-0.5c-0.3-0.3-0.5-0.7-0.5-1.3V33.6c0-0.5,0.2-0.9,0.5-1.2
			s0.8-0.5,1.3-0.5c0.5,0,0.9,0.1,1.2,0.4c0.3,0.3,0.5,0.7,0.5,1.2v0.8c0.5-0.8,1.1-1.4,1.9-1.8c0.8-0.4,1.7-0.6,2.8-0.6
			C216.1,31.9,217.4,32.4,218.2,33.3z"/>
		<path class="st1" d="M232.7,45.2c0,0.5-0.2,0.8-0.6,1.1c-0.4,0.2-0.9,0.3-1.6,0.3l-0.8-0.1c-3.2-0.2-4.9-2-4.9-5.2V35h-1.5
			c-0.5,0-0.9-0.1-1.2-0.3c-0.3-0.2-0.4-0.6-0.4-1c0-0.4,0.1-0.8,0.4-1s0.7-0.3,1.2-0.3h1.5v-2.7c0-0.5,0.2-0.9,0.5-1.2
			c0.3-0.3,0.8-0.5,1.3-0.5c0.5,0,1,0.2,1.3,0.5s0.5,0.7,0.5,1.2v2.7h2.5c0.5,0,0.9,0.1,1.2,0.3c0.3,0.2,0.4,0.6,0.4,1
			c0,0.4-0.1,0.8-0.4,1c-0.3,0.2-0.7,0.3-1.2,0.3h-2.5v6.6c0,1.4,0.7,2.2,2,2.3l0.8,0.1C232.2,44,232.7,44.4,232.7,45.2z"/>
		<path class="st1" d="M247.3,42.9c0.2,0.3,0.3,0.6,0.3,1c0,0.6-0.4,1.1-1.1,1.5c-0.7,0.4-1.4,0.7-2.2,0.9s-1.6,0.3-2.4,0.3
			c-2.3,0-4.1-0.7-5.4-2c-1.3-1.3-2-3.1-2-5.4c0-1.5,0.3-2.7,0.9-3.9c0.6-1.1,1.4-2,2.5-2.6c1.1-0.6,2.2-0.9,3.6-0.9
			c1.3,0,2.4,0.3,3.3,0.8c0.9,0.6,1.7,1.4,2.2,2.4c0.5,1,0.8,2.2,0.8,3.6c0,0.8-0.4,1.2-1.1,1.2h-8.6c0.1,1.3,0.5,2.3,1.1,2.9
			c0.6,0.6,1.6,0.9,2.8,0.9c0.6,0,1.2-0.1,1.6-0.2c0.5-0.2,1-0.4,1.6-0.6c0.6-0.3,1-0.5,1.3-0.5C246.8,42.5,247.1,42.7,247.3,42.9z
			 M239.1,35.4c-0.6,0.6-0.9,1.5-1.1,2.7h6.6c0-1.2-0.3-2.1-0.9-2.7c-0.5-0.6-1.3-0.9-2.3-0.9C240.5,34.4,239.7,34.8,239.1,35.4z"/>
		<path class="st1" d="M252.2,46.1c-0.3-0.3-0.5-0.8-0.5-1.4v-17c0-0.6,0.2-1,0.5-1.3c0.3-0.3,0.8-0.5,1.3-0.5h7.1
			c2.2,0,3.9,0.5,5.1,1.6c1.2,1.1,1.8,2.6,1.8,4.6s-0.6,3.5-1.8,4.6c-1.2,1.1-2.9,1.7-5.1,1.7h-5.2v6.2c0,0.6-0.2,1-0.5,1.4
			c-0.3,0.3-0.8,0.5-1.4,0.5C253,46.6,252.6,46.4,252.2,46.1z M260.2,35.6c2.6,0,3.9-1.1,3.9-3.4c0-2.2-1.3-3.4-3.9-3.4h-4.7v6.7
			H260.2z"/>
		<path class="st1" d="M281.5,33.4c1,1,1.4,2.5,1.4,4.5v7.1c0,0.5-0.2,0.9-0.5,1.2s-0.7,0.4-1.3,0.4c-0.5,0-0.9-0.2-1.2-0.5
			c-0.3-0.3-0.5-0.7-0.5-1.2v-0.6c-0.3,0.8-0.8,1.3-1.6,1.8c-0.7,0.4-1.5,0.6-2.5,0.6c-0.9,0-1.8-0.2-2.6-0.6
			c-0.8-0.4-1.4-0.9-1.8-1.6c-0.4-0.7-0.7-1.4-0.7-2.3c0-1,0.3-1.9,0.8-2.5c0.5-0.6,1.4-1,2.6-1.3c1.2-0.3,2.9-0.4,5-0.4h0.7v-0.7
			c0-0.9-0.2-1.6-0.6-2.1c-0.4-0.4-1.1-0.7-2-0.7c-0.6,0-1.1,0.1-1.7,0.2s-1.3,0.4-2.1,0.7c-0.5,0.3-0.9,0.4-1.1,0.4
			c-0.3,0-0.6-0.1-0.9-0.4c-0.2-0.3-0.3-0.6-0.3-1c0-0.3,0.1-0.6,0.2-0.9c0.2-0.2,0.4-0.5,0.8-0.7c0.7-0.4,1.5-0.7,2.4-0.9
			c0.9-0.2,1.9-0.3,2.8-0.3C279,31.9,280.5,32.4,281.5,33.4z M278.5,43.1c0.6-0.6,0.9-1.5,0.9-2.5V40h-0.5c-1.3,0-2.3,0.1-3,0.2
			c-0.7,0.1-1.2,0.3-1.5,0.6c-0.3,0.3-0.5,0.7-0.5,1.2c0,0.6,0.2,1.1,0.7,1.5c0.4,0.4,1,0.6,1.6,0.6C277.1,44,277.9,43.7,278.5,43.1
			z"/>
		<path class="st1" d="M297.8,32.2c0.3-0.2,0.5-0.2,0.9-0.2c0.4,0,0.8,0.2,1.2,0.5s0.5,0.7,0.5,1.1c0,0.2-0.1,0.4-0.2,0.7l-7.9,16.6
			c-0.3,0.7-0.8,1-1.5,1c-0.4,0-0.8-0.1-1.2-0.4c-0.3-0.3-0.5-0.6-0.5-1.1c0-0.2,0.1-0.5,0.2-0.7l2-4.1l-5.4-11.2
			c-0.1-0.2-0.1-0.4-0.1-0.7c0-0.4,0.2-0.8,0.6-1.1s0.8-0.5,1.3-0.5c0.3,0,0.6,0.1,0.9,0.2c0.3,0.2,0.5,0.4,0.6,0.8l4.1,9l4-8.9
			C297.3,32.6,297.5,32.4,297.8,32.2z"/>
	</g>
	<g class="st0">
		<path class="st1" d="M74.2,45.2c0,0.5-0.2,0.8-0.6,1.1c-0.4,0.2-0.9,0.3-1.6,0.3l-0.8-0.1c-3.2-0.2-4.9-2-4.9-5.2V35h-1.5
			c-0.5,0-0.9-0.1-1.2-0.3c-0.3-0.2-0.4-0.6-0.4-1c0-0.4,0.1-0.8,0.4-1c0.3-0.2,0.7-0.3,1.2-0.3h1.5v-2.7c0-0.5,0.2-0.9,0.5-1.2
			s0.8-0.5,1.3-0.5c0.5,0,1,0.2,1.3,0.5c0.3,0.3,0.5,0.7,0.5,1.2v2.7h2.5c0.5,0,0.9,0.1,1.2,0.3c0.3,0.2,0.4,0.6,0.4,1
			c0,0.4-0.1,0.8-0.4,1C73.4,34.8,73,35,72.5,35H70v6.6c0,1.4,0.7,2.2,2,2.3l0.8,0.1C73.7,44,74.2,44.4,74.2,45.2z"/>
		<path class="st1" d="M89.4,32.4c0.3,0.3,0.5,0.7,0.5,1.2v11.3c0,0.5-0.2,0.9-0.5,1.2c-0.3,0.3-0.8,0.5-1.3,0.5
			c-0.5,0-0.9-0.1-1.2-0.4c-0.3-0.3-0.5-0.7-0.5-1.2v-0.7c-0.4,0.8-1,1.4-1.8,1.8c-0.8,0.4-1.6,0.6-2.6,0.6c-3.5,0-5.2-2-5.2-5.9
			v-7.1c0-0.5,0.2-0.9,0.5-1.2c0.3-0.3,0.8-0.5,1.3-0.5c0.6,0,1,0.2,1.3,0.5c0.3,0.3,0.5,0.7,0.5,1.2v7.2c0,1,0.2,1.8,0.6,2.2
			c0.4,0.5,1,0.7,1.9,0.7c1,0,1.8-0.3,2.4-1c0.6-0.7,0.9-1.6,0.9-2.7v-6.5c0-0.5,0.2-0.9,0.5-1.2c0.3-0.3,0.8-0.5,1.3-0.5
			C88.6,31.9,89,32.1,89.4,32.4z"/>
	</g>
	<g id="Group_6047" transform="translate(44.987 6.925)" class="st2">
		<g id="Group_6035" transform="translate(0 0)">
			<g id="Group_6034">
				<g id="Group_6033">
					<path id="Path_2945" class="st1" d="M63.1,31.5c0-3-0.1-6.2-3.1-6.2s-2.8,3.2-2.8,6.2c0.2,13-10.1,25.7-26.5,25.7
						c-11,0-24.3-9.4-24.9-24.9C5.4,19.6,15.6,5.8,31.5,5.9c3,0,5.5,0,5.5-3.1S34.6,0,31.5,0C14.1,0,0,14.1,0,31.5
						C0,49,14.1,63.1,31.5,63.1C49,63.1,63.1,49,63.1,31.5L63.1,31.5z"/>
				</g>
			</g>
		</g>
		<circle id="Ellipse_28" class="st1" cx="57.4" cy="16.9" r="5.5"/>
		<circle id="Ellipse_29" class="st1" cx="44.8" cy="16.9" r="3.9"/>
		<path id="Path_2946" class="st1" d="M42.5,7.6c0,1.3,1,2.3,2.3,2.3c1.3,0,2.3-1,2.3-2.3c0-1.3-1-2.3-2.3-2.3l0,0
			C43.5,5.2,42.5,6.3,42.5,7.6z"/>
	</g>
</g>
</svg>
