<?xml version="1.0" encoding="utf-8"?>
<!-- Generator: Adobe Illustrator 24.0.3, SVG Export Plug-In . SVG Version: 6.00 Build 0)  -->
<svg version="1.1" id="Livello_1" xmlns="http://www.w3.org/2000/svg" xmlns:xlink="http://www.w3.org/1999/xlink" x="0px" y="0px"
	 viewBox="0 0 265.8 91.3" style="enable-background:new 0 0 265.8 91.3;" xml:space="preserve">
<style type="text/css">
	.st0{fill:#FFFFFF;}
</style>
<g id="Group_6441" transform="translate(-381.812 -2472.485)">
	<g id="Group_74" transform="translate(582.812 2505.505)">
		<path id="Path_210" class="st0" d="M15.1,24c0,0.6-0.3,1.2-0.8,1.5c-0.7,0.4-1.5,0.5-2.2,0.4L11,25.8c-4.5-0.3-6.7-2.7-6.7-7.2
			V9.8h-2c-0.6,0-1.2-0.1-1.7-0.5c-0.8-0.8-0.8-2,0-2.8c0,0,0,0,0,0C1.1,6.2,1.7,6,2.2,6.1h2V2.4c0-0.6,0.2-1.3,0.7-1.7
			C5.4,0.2,6.1,0,6.8,0c0.7,0,1.3,0.2,1.8,0.6C9,1.1,9.3,1.7,9.3,2.4v3.7h3.4c0.6,0,1.2,0.1,1.7,0.5c0.8,0.8,0.8,2,0,2.8
			c-0.5,0.4-1.1,0.5-1.7,0.5H9.3v9.1c0,2,0.9,3,2.7,3.2l1.1,0.1C14.4,22.3,15.1,22.9,15.1,24z"/>
		<path id="Path_211" class="st0" d="M35.5,6.3C36,6.7,36.2,7.4,36.2,8v15.6c0,0.6-0.2,1.3-0.7,1.7c-0.5,0.4-1.2,0.7-1.8,0.6
			c-0.6,0-1.3-0.2-1.7-0.6c-0.4-0.4-0.7-1-0.6-1.6v-1c-0.6,1-1.4,1.9-2.5,2.5c-1.1,0.6-2.3,0.9-3.5,0.9c-4.8,0-7.2-2.7-7.2-8.1V8
			c0-0.6,0.2-1.3,0.7-1.7c0.5-0.4,1.1-0.7,1.8-0.6c0.7,0,1.3,0.2,1.8,0.6c0.5,0.5,0.7,1.1,0.7,1.7v9.9C23,19,23.3,20.1,23.9,21
			c0.7,0.7,1.7,1.1,2.6,1c1.3,0.1,2.5-0.5,3.3-1.4c0.9-1,1.3-2.3,1.3-3.7V8c0-0.6,0.2-1.3,0.7-1.7c0.5-0.4,1.1-0.7,1.8-0.6
			C34.4,5.6,35,5.9,35.5,6.3z"/>
	</g>
	<g id="Group_76" transform="translate(381.812 2503.487)">
		<g id="Group_75">
			<path id="Path_212" class="st0" d="M0.7,27C0.2,26.5,0,25.9,0,25.2V2.9c0-0.6,0.2-1.3,0.6-1.7c0.5-0.4,1.1-0.6,1.7-0.6h9.4
				c2.4-0.1,4.8,0.6,6.7,2.1c3.2,3.4,3.2,8.7,0,12.1c-1.9,1.5-4.3,2.3-6.7,2.2H4.9v8.2c0.1,1.3-0.8,2.4-2.1,2.5c-0.1,0-0.2,0-0.4,0
				C1.8,27.7,1.1,27.5,0.7,27z M11.1,13.2c3.4,0,5.1-1.5,5.1-4.4c0-2.9-1.7-4.4-5.1-4.4H4.9v8.8H11.1z"/>
			<path id="Path_213" class="st0" d="M25,4.4c-0.5-0.5-0.8-1.1-0.8-1.8c0-0.7,0.2-1.4,0.8-1.8c1.2-0.9,2.9-0.9,4.1,0
				c0.5,0.5,0.8,1.1,0.8,1.8c0,0.7-0.3,1.4-0.8,1.8C27.9,5.3,26.2,5.3,25,4.4L25,4.4z M25.4,27.1c-0.5-0.4-0.7-1.1-0.7-1.7V10.7
				c0-0.6,0.2-1.2,0.7-1.7c0.5-0.4,1.1-0.6,1.7-0.6c0.6,0,1.2,0.2,1.7,0.6c0.5,0.4,0.7,1,0.7,1.7v14.7c0,0.6-0.2,1.3-0.7,1.7
				c-0.5,0.4-1.1,0.6-1.7,0.6C26.5,27.7,25.8,27.5,25.4,27.1L25.4,27.1z"/>
			<path id="Path_214" class="st0" d="M50.3,22.8c0.3,0.4,0.4,0.9,0.4,1.3c-0.1,0.9-0.6,1.6-1.4,2c-0.9,0.5-1.9,0.9-2.9,1.2
				c-1,0.3-2.1,0.4-3.1,0.4c-2.6,0.1-5.2-0.8-7.1-2.6c-1.8-1.9-2.8-4.5-2.6-7.1c0-1.8,0.4-3.5,1.1-5.1c0.7-1.4,1.8-2.6,3.2-3.4
				c1.4-0.8,3.1-1.2,4.7-1.2c1.5,0,3,0.3,4.4,1.1c1.2,0.7,2.3,1.8,2.9,3.1c0.7,1.5,1.1,3.1,1,4.8c0,1.1-0.5,1.6-1.4,1.6H38.2
				c0,1.4,0.5,2.8,1.5,3.9c1,0.9,2.3,1.3,3.7,1.2c0.7,0,1.5-0.1,2.2-0.3c0.7-0.2,1.4-0.5,2.1-0.8c0.5-0.3,1.1-0.5,1.7-0.6
				C49.7,22.3,50,22.5,50.3,22.8z M39.6,12.9c-0.8,1-1.3,2.2-1.4,3.5h8.6c0-1.3-0.4-2.5-1.1-3.5c-0.8-0.8-1.9-1.3-3-1.2
				C41.5,11.7,40.4,12.1,39.6,12.9L39.6,12.9z"/>
			<path id="Path_215" class="st0" d="M81.8,10.2c1.1,1.2,1.6,3.2,1.6,5.8v9.4c0,0.6-0.2,1.3-0.7,1.7c-0.5,0.4-1.1,0.6-1.7,0.6
				c-0.6,0-1.2-0.2-1.7-0.6c-0.5-0.4-0.7-1.1-0.7-1.7V16c0.1-1.1-0.2-2.1-0.7-3c-0.6-0.6-1.4-1-2.3-0.9c-1.1,0-2.2,0.4-3,1.3
				c-0.8,1-1.2,2.2-1.1,3.5v8.5c0,0.6-0.2,1.3-0.7,1.7c-0.5,0.4-1.1,0.6-1.7,0.6c-0.6,0-1.2-0.2-1.7-0.6c-0.5-0.4-0.7-1.1-0.7-1.7
				V16c0.1-1.1-0.2-2.1-0.7-3c-0.6-0.6-1.4-1-2.3-0.9c-1.1-0.1-2.2,0.4-3,1.3c-0.8,1-1.2,2.2-1.1,3.5v8.5c0,0.6-0.2,1.3-0.7,1.7
				c-0.5,0.4-1.1,0.6-1.7,0.6c-0.6,0-1.2-0.2-1.7-0.6C55.2,26.6,55,26,55,25.4V10.7c0-0.6,0.2-1.2,0.7-1.6c0.5-0.4,1.1-0.6,1.7-0.6
				C58,8.4,58.6,8.6,59,9c0.4,0.4,0.7,1,0.6,1.6v0.9c0.5-1,1.4-1.8,2.3-2.3c1-0.5,2.2-0.8,3.4-0.8c2.8,0,4.7,1.2,5.6,3.5
				c0.6-1.1,1.4-2,2.5-2.6c1.1-0.6,2.4-1,3.7-1C78.9,8.3,80.6,8.9,81.8,10.2z"/>
			<path id="Path_216" class="st0" d="M91.9,26.6c-1.4-0.8-2.6-2-3.3-3.4c-1.6-3.2-1.6-7,0-10.3c0.8-1.4,1.9-2.6,3.3-3.4
				c3.2-1.6,6.9-1.6,10,0c1.4,0.8,2.6,1.9,3.3,3.4c1.5,3.2,1.5,7,0,10.3c-0.7,1.4-1.9,2.6-3.3,3.4C98.8,28.1,95.1,28.1,91.9,26.6z
				 M100.5,22.5c1.6-2.8,1.6-6.2,0-9c-0.9-1-2.2-1.6-3.5-1.5c-1.4-0.1-2.7,0.5-3.5,1.5c-1.6,2.8-1.6,6.2,0,9c0.9,1,2.2,1.6,3.5,1.5
				C98.3,24.1,99.6,23.6,100.5,22.5L100.5,22.5z"/>
			<path id="Path_217" class="st0" d="M126.3,10.3c1.1,1.3,1.6,3.2,1.6,5.7v9.4c0,0.6-0.2,1.2-0.6,1.7c-0.5,0.4-1.1,0.6-1.7,0.6
				c-0.6,0-1.3-0.2-1.8-0.6c-0.4-0.4-0.7-1-0.6-1.7v-9.1c0.1-1.1-0.2-2.2-0.8-3.2c-0.7-0.7-1.6-1.1-2.6-1c-1.2-0.1-2.4,0.4-3.3,1.3
				c-0.9,0.9-1.3,2.2-1.2,3.5v8.5c0,0.6-0.2,1.2-0.6,1.7c-0.5,0.4-1.1,0.6-1.8,0.6c-0.6,0-1.3-0.2-1.7-0.6c-0.4-0.4-0.7-1.1-0.6-1.7
				V10.7c0-0.6,0.2-1.2,0.6-1.6c0.5-0.4,1.1-0.6,1.8-0.6c0.6,0,1.2,0.2,1.6,0.6c0.4,0.4,0.7,1,0.6,1.5v1c0.6-1,1.5-1.9,2.6-2.4
				c1.1-0.6,2.4-0.9,3.6-0.8C123.2,8.2,125,8.9,126.3,10.3z"/>
			<path id="Path_218" class="st0" d="M144.7,25.8c0,0.6-0.3,1.1-0.7,1.4c-0.6,0.3-1.4,0.5-2.1,0.4l-1-0.1c-4.3-0.3-6.4-2.6-6.4-6.9
				v-8.3h-1.9c-0.6,0-1.1-0.1-1.6-0.5c-0.7-0.7-0.7-1.9,0-2.7c0.5-0.3,1-0.5,1.6-0.5h1.9V5.3c0-0.6,0.2-1.2,0.6-1.6
				c0.5-0.4,1.1-0.6,1.8-0.6c0.6,0,1.2,0.2,1.7,0.6c0.4,0.4,0.7,1,0.6,1.6v3.5h3.2c0.6,0,1.1,0.1,1.6,0.5c0.7,0.7,0.7,1.9,0,2.7
				c0,0,0,0,0,0c-0.5,0.3-1,0.5-1.6,0.5h-3.2v8.6c0,1.9,0.9,2.9,2.6,3l1,0.1C144.1,24.2,144.7,24.8,144.7,25.8z"/>
			<path id="Path_219" class="st0" d="M163,22.8c0.3,0.4,0.4,0.9,0.4,1.3c-0.1,0.9-0.6,1.6-1.4,2c-0.9,0.5-1.9,0.9-2.9,1.2
				c-1,0.3-2.1,0.4-3.1,0.4c-2.6,0.1-5.2-0.8-7.1-2.6c-1.8-1.9-2.8-4.5-2.6-7.1c0-1.8,0.4-3.5,1.1-5.1c0.7-1.4,1.8-2.6,3.2-3.4
				c1.4-0.8,3.1-1.2,4.7-1.2c1.5,0,3,0.3,4.4,1.1c1.2,0.7,2.3,1.8,2.9,3.1c0.7,1.5,1.1,3.1,1,4.8c0,1.1-0.5,1.6-1.4,1.6h-11.2
				c0,1.4,0.5,2.8,1.5,3.9c1,0.9,2.3,1.3,3.7,1.2c0.7,0,1.5-0.1,2.2-0.3c0.7-0.2,1.4-0.5,2.1-0.8c0.5-0.3,1.1-0.5,1.7-0.6
				C162.4,22.3,162.7,22.5,163,22.8z M152.3,12.9c-0.8,1-1.3,2.2-1.4,3.5h8.6c0-1.3-0.4-2.5-1.1-3.5c-0.8-0.8-1.9-1.3-3-1.2
				C154.2,11.7,153.1,12.1,152.3,12.9L152.3,12.9z"/>
		</g>
	</g>
	<g id="Group_80" transform="translate(556.253 2472.485)">
		<g id="Group_79">
			<g id="Group_78">
				<g id="Group_77">
					<path id="Path_220" class="st0" d="M91.3,45.7c0-4.4-0.1-9-4.5-9s-4,4.6-4,9c0.2,18.8-14.6,37.2-38.4,37.2
						c-15.9,0-35.2-13.7-36-36C7.8,28.4,22.5,8.4,45.7,8.5c4.4,0,7.9-0.1,7.9-4.4S50,0,45.7,0C20.4,0,0,20.4,0,45.7
						c0,25.2,20.4,45.7,45.7,45.7C70.9,91.3,91.3,70.9,91.3,45.7L91.3,45.7L91.3,45.7z"/>
				</g>
			</g>
		</g>
		<circle id="Ellipse_70" class="st0" cx="83.1" cy="24.5" r="7.9"/>
		<circle id="Ellipse_71" class="st0" cx="64.9" cy="24.5" r="5.7"/>
		<path id="Path_221" class="st0" d="M61.5,10.9c0,1.9,1.5,3.4,3.4,3.4s3.4-1.5,3.4-3.4s-1.5-3.4-3.4-3.4S61.5,9.1,61.5,10.9
			L61.5,10.9z"/>
	</g>
</g>
</svg>
