<svg xmlns="http://www.w3.org/2000/svg" width="253" height="89.66" viewBox="0 0 253 89.66"><defs><style>.a,.b,.c{fill:#fff;}.a{font-size:39px;font-family:Nunito-Bold, Nunito;font-weight:700;}.b{font-size:37px;font-family:Nunito-Regular, Nunito;}</style></defs><g transform="translate(-1728.863 -2369.547)"><text class="a" transform="translate(1917.317 2426.326)"><tspan x="0" y="0">tu</tspan></text><text class="b" transform="translate(1728.863 2425.225)"><tspan x="0" y="0">Piemonte</tspan></text><g transform="translate(1892.208 2369.547)"><g transform="translate(0 0)"><path class="c" d="M2228.484,2414.379c0-4.3-.117-8.841-4.417-8.841s-3.966,4.541-3.912,8.841c.232,18.428-14.325,36.517-37.654,36.517-15.615,0-34.562-13.407-35.342-35.361-.642-18.093,13.8-37.723,36.5-37.635,4.3.017,7.769-.053,7.769-4.354s-3.468-4-7.769-4a44.828,44.828,0,1,0,44.828,44.828Z" transform="translate(-2138.829 -2369.547)"/></g><circle class="c" cx="7.787" cy="7.787" r="7.787" transform="translate(73.77 16.235)"/><circle class="c" cx="5.555" cy="5.555" r="5.555" transform="translate(56.436 20.977) rotate(-22.196)"/><path class="c" d="M2290.31,2391.507a3.322,3.322,0,1,0,3.323-3.322A3.322,3.322,0,0,0,2290.31,2391.507Z" transform="translate(-2229.955 -2380.759)"/></g></g></svg>